<svg height="41" viewBox="0 0 37 41" width="37" xmlns="http://www.w3.org/2000/svg"><path d="m18.08 27.95c1.31 0 2.37-1.08 2.37-2.42s-1.06-2.43-2.37-2.43-2.38 1.09-2.38 2.43 1.07 2.42 2.38 2.42zm0-3.73c.71 0 1.28.58 1.28 1.31 0 .72-.57 1.31-1.28 1.31s-1.29-.59-1.29-1.31c0-.73.58-1.31 1.29-1.31zm10.44-14.18c2.18 0 3.94-1.8 3.94-4.02s-1.76-4.02-3.94-4.02c-2.17 0-3.93 1.8-3.93 4.02s1.76 4.02 3.93 4.02zm0-6.93c1.58 0 2.85 1.31 2.85 2.91s-1.27 2.91-2.85 2.91c-1.57 0-2.84-1.31-2.84-2.91s1.27-2.91 2.84-2.91zm5.97 13.12c-.31 0-.55.25-.55.56v7.61c0 .2-.16.36-.35.36h-1.52v-9.82c0-.31-.24-.56-.55-.56-.3 0-.54.25-.54.56v23.68c0 .2 0 .36-.2.36h-1.42c-.19 0-.35-.16-.35-.36v-8.95c0-.31-.18-.56-.48-.56-.31 0-.55.25-.55.56v8.95c0 .2-.16.36-.35.36h-1.24c-.19 0-.35-.16-.35-.36v-23.68c0-.31-.18-.56-.48-.56s-.55.25-.55.56v9.82h-1.58c-.19 0-.35-.16-.35-.36v-9.46c0-1.83 1.71-2.85 3.5-2.85h4.08c1.79 0 3.28 1.02 3.28 2.85 0 .3.24.55.55.55.3 0 .54-.25.54-.55 0-2.45-1.98-3.96-4.37-3.96h-4.08c-2.4 0-4.59 1.51-4.59 3.96v9.46c0 .82.65 1.48 1.44 1.48h1.58v12.65c0 .81.65 1.47 1.44 1.47h1.18c.34 0 .65-.12.89-.32.25.2.56.32.9.32h1.36c.8 0 1.29-.66 1.29-1.47v-12.65h1.52c.79 0 1.44-.66 1.44-1.48v-7.61c0-.31-.24-.56-.54-.56zm-27.82-3.13c2.17 0 3.94-1.8 3.94-4.02s-1.77-4.02-3.94-4.02-3.94 1.8-3.94 4.02 1.77 4.02 3.94 4.02zm0-6.93c1.57 0 2.85 1.31 2.85 2.91s-1.28 2.91-2.85 2.91-2.85-1.31-2.85-2.91 1.28-2.91 2.85-2.91zm2.51 7.8h-4.3c-2.14 0-3.85 1.77-3.85 3.95v8.32c0 .75.6 1.36 1.33 1.36h.02l-.41 3.85c-.01.16.03.31.14.43.1.12.25.19.4.19h.49v6.57c0 .75.6 1.36 1.33 1.36h1.55c.3 0 .57-.1.79-.27.22.17.49.27.79.27h1.24c.73 0 1.33-.61 1.33-1.36v-3.07c0-.31-.25-.56-.55-.56s-.48.25-.48.56v3.13c0 .14-.11.25-.24.25h-1.49c-.13 0-.24-.11-.24-.25v-6.01c0-.3-.25-.21-.55-.21s-.45-.09-.45.21v6.01c0 .14-.11.25-.24.25h-1.52c-.14 0-.24-.11-.24-.25v-6.7h4.97v1.78c0 .31.18.56.48.56s.55-.25.55-.56v-1.71h.79c.16 0 .31-.07.41-.19s.15-.27.14-.43l.34-3.85h.01c.74 0 1.34-.61 1.34-1.36v-8.32c0-2.18-1.74-3.95-3.88-3.95zm2.79 12.27c0 .13-.11.24-.25.24h-.13l-1-9.27c-.03-.3-.3-.52-.6-.49s-.52.31-.48.61l.71 13.65h-.52-.34-5.38-.45-.41l1.43-13.65c.03-.3-.18-.58-.48-.61s-.57.19-.6.49l-.97 9.27h-.14c-.13 0-.24-.11-.24-.24v-8.32c0-1.56 1.22-2.9 2.76-2.9h4.3c1.54 0 2.79 1.34 2.79 2.9zm10.24-.14c-.39.02-.75.18-1.02.47l-2.03 2.37h-2.11l-2.03-2.37c-.56-.6-1.48-.63-2.07-.06-.59.56-.62 1.51-.06 2.11l2.1 2.56v7.37c0 .8.89 1.45 1.68 1.45h2.96c.79 0 1.39-.65 1.39-1.45v-3.06c0-.31-.21-.56-.51-.56s-.51.25-.51.56v3.15c0 .19-.15.34-.34.34h-1.13v-4.74c0-.3-.25-.55-.55-.55s-.54.25-.54.55v4.74h-.77c-.19 0-.65-.15-.65-.34v-7.68c0-.14-.05-.28-.15-.38l-2.19-2.73c-.14-.15-.13-.39.02-.53s.38-.14.52.02l2.2 2.51c.1.11.24.17.39.17h2.58c.15 0 .3-.06.4-.17l2.19-2.51c.14-.16.38-.16.53-.02s.15.38.01.53l-2.38 2.73c-.09.1-.14.24-.14.38v2.67c0 .31.21.56.51.56s.51-.25.51-.56v-2.45l2.3-2.56c.55-.6.52-1.55-.06-2.11-.29-.28-.66-.42-1.05-.41z" fill="#fff"/></svg>