<svg height="36" viewBox="0 0 38 36" width="38" xmlns="http://www.w3.org/2000/svg"><path d="m5.55 29.99h1.85c.32 0 .59.23.59.51s-.27.51-.59.51h-1.85c-.33 0-.59-.23-.59-.51s.26-.51.59-.51zm0-3.02h1.84c.32 0 .59.2.59.48s-.27.5-.59.5h-1.84c-.33 0-.6-.03-.6-.38s.27-.6.6-.6zm31.45-9.39-.08 16.44h.08v.98h-32.78c-1.23 0-2.22-.85-2.22-1.9v-26.4c0-1.04.99-1.71 2.22-1.71h2.95c.41 0 .74.1.74.45s-.33.57-.74.57h-3.43c-.41 0-.74.28-.74.63v26.74c0 .35.33.64.74.64h5.28v-25h-3.33c-.4 0-1.03-.15-1.03-.5s.63-.54 1.03-.54h3.33v-5.07c0-1.05 1-1.9 2.22-1.9h7.24c1.24 0 1.53.83 1.53 1.9v1.07h6.37c.41 0 .74.16.74.51s-.33.53-.74.53h-6.37v29h8.97v-30.1c0-1.04.9-1.89 2.12-1.89h3.63c1.24 0 2.22.83 2.22 1.89l.05 4.61zm-17.98-14.92c0-.36-.14-.63-.56-.63h-7.71c-.41 0-.73.27-.73.63v2.33h7.49c.41 0 .74.01.74.36 0 .34-.33.63-.74.63h-7.49v28.04h9zm16.98.95c0-.36-.32-.63-.74-.63h-4.55c-.41 0-.74.28-.74.63l.03 2.37h3.77c.4 0 .73.16.73.51 0 .34-.33.53-.73.53h-3.77l-.03 27h6.03zm-23.05 23.33h3.62c.33 0 .6.24.6.52 0 .29-.27.52-.6.52h-3.62c-.34 0-.61-.23-.61-.52 0-.28.27-.52.61-.52zm0 3.05h3.64c.34 0 .61.23.61.52s-.27.52-.61.52h-3.64c-.34 0-.61-.23-.61-.52s.27-.52.61-.52zm4.52-9.02h-4.74c-.41 0-.74-.28-.74-.63v-8.73c0-.35.33-.63.74-.63h4.74c.4 0 .55.28.55.63v8.73c0 .35-.15.63-.55.63zm-.45-8.95h-4v7.97h4zm9.22 8.98h-3.55c-.4 0-.74-.28-.74-.63v-8.76c0-.35.34-.63.74-.63h3.55c.41 0 .74.28.74.63v8.76c0 .35-.33.63-.74.63zm-.26-8.98h-2.95v7.97h2.95zm5.9 17.83h1.48c.41 0 .74.28.74.63s-.33.63-.74.63h-1.48c-.41 0-.74-.28-.74-.63s.33-.63.74-.63zm0-2.91h1.48c.41 0 .74.28.74.63s-.33.63-.74.63h-1.48c-.41 0-.74-.28-.74-.63s.33-.63.74-.63zm-26.33-11.95h1.85c.32 0 .59.23.59.51s-.27.51-.59.51h-1.85c-.33 0-.59-.23-.59-.51s.26-.51.59-.51zm0-3.02h1.84c.32 0 .59.2.59.48s-.27.5-.59.5h-1.84c-.33 0-.6-.03-.6-.38s.27-.6.6-.6zm17.36 15.01h3.63c.33 0 .6.23.6.51 0 .29-.27.52-.6.52h-3.63c-.33 0-.6-.23-.6-.52 0-.28.27-.51.6-.51zm.01 3.04h3.64c.34 0 .61.23.61.52s-.27.52-.61.52h-3.64c-.34 0-.61-.23-.61-.52s.27-.52.61-.52zm9.04-15.03h1.84c.33 0 .6.23.6.51s-.27.51-.6.51h-1.84c-.33 0-.6-.23-.6-.51s.27-.51.6-.51zm0-3.02h1.83c.33 0 .6.2.6.48s-.27.5-.6.5h-1.83c-.33 0-.6-.03-.6-.38s.27-.6.6-.6z" fill="#fff"/></svg>