<svg xmlns="http://www.w3.org/2000/svg" viewBox="0 0 38 36" width="38" height="36">
	<style>
		tspan { white-space:pre }
		.shp0 { fill: white }
	</style>
	<path id="Library" class="shp0" d="M5.55 29.99L7.4 29.99C7.72 29.99 7.99 30.22 7.99 30.5C7.99 30.78 7.72 31.01 7.4 31.01L5.55 31.01C5.22 31.01 4.96 30.78 4.96 30.5C4.96 30.22 5.22 29.99 5.55 29.99ZM5.55 26.97L7.39 26.97C7.71 26.97 7.98 27.17 7.98 27.45C7.98 27.73 7.71 27.95 7.39 27.95L5.55 27.95C5.22 27.95 4.95 27.92 4.95 27.57C4.95 27.22 5.22 26.97 5.55 26.97ZM37 17.58L36.92 34.02L37 34.02L37 35L4.22 35C2.99 35 2 34.15 2 33.1L2 6.7C2 5.66 2.99 4.99 4.22 4.99L7.17 4.99C7.58 4.99 7.91 5.09 7.91 5.44C7.91 5.79 7.58 6.01 7.17 6.01L3.74 6.01C3.33 6.01 3 6.29 3 6.64L3 33.38C3 33.73 3.33 34.02 3.74 34.02L9.02 34.02L9.02 9.02L5.69 9.02C5.29 9.02 4.66 8.87 4.66 8.52C4.66 8.17 5.29 7.98 5.69 7.98L9.02 7.98L9.02 2.91C9.02 1.86 10.02 1.01 11.24 1.01L18.48 1.01C19.72 1.01 20.01 1.84 20.01 2.91L20.01 3.98L26.38 3.98C26.79 3.98 27.12 4.14 27.12 4.49C27.12 4.84 26.79 5.02 26.38 5.02L20.01 5.02L20.01 34.02L28.98 34.02L28.98 3.92C28.98 2.88 29.88 2.03 31.1 2.03L34.73 2.03C35.97 2.03 36.95 2.86 36.95 3.92L37 8.53L37 17.58ZM19.02 2.66C19.02 2.3 18.88 2.03 18.46 2.03L10.75 2.03C10.34 2.03 10.02 2.3 10.02 2.66L10.02 4.99L17.51 4.99C17.92 4.99 18.25 5 18.25 5.35C18.25 5.69 17.92 5.98 17.51 5.98L10.02 5.98L10.02 34.02L19.02 34.02L19.02 2.66ZM36 3.61C36 3.25 35.68 2.98 35.26 2.98L30.71 2.98C30.3 2.98 29.97 3.26 29.97 3.61L30 5.98L33.77 5.98C34.17 5.98 34.5 6.14 34.5 6.49C34.5 6.83 34.17 7.02 33.77 7.02L30 7.02L29.97 34.02L36 34.02L36 3.61ZM12.95 26.94L16.57 26.94C16.9 26.94 17.17 27.18 17.17 27.46C17.17 27.75 16.9 27.98 16.57 27.98L12.95 27.98C12.61 27.98 12.34 27.75 12.34 27.46C12.34 27.18 12.61 26.94 12.95 26.94ZM12.95 29.99L16.59 29.99C16.93 29.99 17.2 30.22 17.2 30.51C17.2 30.8 16.93 31.03 16.59 31.03L12.95 31.03C12.61 31.03 12.34 30.8 12.34 30.51C12.34 30.22 12.61 29.99 12.95 29.99ZM17.47 20.97L12.73 20.97C12.32 20.97 11.99 20.69 11.99 20.34L11.99 11.61C11.99 11.26 12.32 10.98 12.73 10.98L17.47 10.98C17.87 10.98 18.02 11.26 18.02 11.61L18.02 20.34C18.02 20.69 17.87 20.97 17.47 20.97ZM17.02 12.02L13.02 12.02L13.02 19.99L17.02 19.99L17.02 12.02ZM26.24 21L22.69 21C22.29 21 21.95 20.72 21.95 20.37L21.95 11.61C21.95 11.26 22.29 10.98 22.69 10.98L26.24 10.98C26.65 10.98 26.98 11.26 26.98 11.61L26.98 20.37C26.98 20.72 26.65 21 26.24 21ZM25.98 12.02L23.03 12.02L23.03 19.99L25.98 19.99L25.98 12.02ZM31.88 29.85L33.36 29.85C33.77 29.85 34.1 30.13 34.1 30.48C34.1 30.83 33.77 31.11 33.36 31.11L31.88 31.11C31.47 31.11 31.14 30.83 31.14 30.48C31.14 30.13 31.47 29.85 31.88 29.85ZM31.88 26.94L33.36 26.94C33.77 26.94 34.1 27.22 34.1 27.57C34.1 27.92 33.77 28.2 33.36 28.2L31.88 28.2C31.47 28.2 31.14 27.92 31.14 27.57C31.14 27.22 31.47 26.94 31.88 26.94ZM5.55 14.99L7.4 14.99C7.72 14.99 7.99 15.22 7.99 15.5C7.99 15.78 7.72 16.01 7.4 16.01L5.55 16.01C5.22 16.01 4.96 15.78 4.96 15.5C4.96 15.22 5.22 14.99 5.55 14.99ZM5.55 11.97L7.39 11.97C7.71 11.97 7.98 12.17 7.98 12.45C7.98 12.73 7.71 12.95 7.39 12.95L5.55 12.95C5.22 12.95 4.95 12.92 4.95 12.57C4.95 12.22 5.22 11.97 5.55 11.97ZM22.91 26.98L26.54 26.98C26.87 26.98 27.14 27.21 27.14 27.49C27.14 27.78 26.87 28.01 26.54 28.01L22.91 28.01C22.58 28.01 22.31 27.78 22.31 27.49C22.31 27.21 22.58 26.98 22.91 26.98ZM22.92 30.02L26.56 30.02C26.9 30.02 27.17 30.25 27.17 30.54C27.17 30.83 26.9 31.06 26.56 31.06L22.92 31.06C22.58 31.06 22.31 30.83 22.31 30.54C22.31 30.25 22.58 30.02 22.92 30.02ZM31.96 14.99L33.8 14.99C34.13 14.99 34.4 15.22 34.4 15.5C34.4 15.78 34.13 16.01 33.8 16.01L31.96 16.01C31.63 16.01 31.36 15.78 31.36 15.5C31.36 15.22 31.63 14.99 31.96 14.99ZM31.96 11.97L33.79 11.97C34.12 11.97 34.39 12.17 34.39 12.45C34.39 12.73 34.12 12.95 33.79 12.95L31.96 12.95C31.63 12.95 31.36 12.92 31.36 12.57C31.36 12.22 31.63 11.97 31.96 11.97Z" />
</svg>
