<svg xmlns="http://www.w3.org/2000/svg" viewBox="0 0 42 38" width="42" height="38">
	<style>
		tspan { white-space:pre }
		.shp0 { fill: #333333 }
	</style>
	<path id="School" class="shp0" d="M39.46 34.97L37.98 34.97L37.98 19.04L39.46 19.04C39.66 19.04 39.85 18.93 39.95 18.75C40.05 18.58 40.04 18.37 39.93 18.2L35.76 12.15C35.66 11.99 35.48 11.9 35.29 11.9L24.21 11.9L21.56 9.18L21.56 7.03L26.95 7.03C27.16 7.03 27.35 6.92 27.45 6.74C27.54 6.57 27.53 6.35 27.42 6.18L26.43 4.73L27.42 3.85C27.53 3.68 27.54 3.47 27.45 3.29C27.35 3.11 27.16 3 26.95 3L21.56 3L21.56 1.82C21.56 1.51 21.31 1.27 21 1.27C20.69 1.27 20.44 1.51 20.44 1.82L20.44 9.18L17.79 11.9L6.7 11.9C6.51 11.9 6.34 11.99 6.23 12.15L2.06 18.2C1.95 18.37 1.95 18.58 2.05 18.75C2.14 18.93 2.33 19.04 2.53 19.04L4.01 19.04L4.01 34.97L2.53 34.97C2.23 34.97 1.98 35.22 1.98 35.52C1.98 35.82 2.23 36 2.53 36L39.46 36C39.77 36 40.02 35.82 40.02 35.52C40.02 35.22 39.77 34.97 39.46 34.97ZM34.98 12.99L38.44 17.94L30.76 17.94L25.32 12.99L34.98 12.99ZM25.91 4.09L25.3 4.43C25.17 4.61 25.17 4.85 25.3 5.04L25.91 5.94L21.56 5.94L21.56 4.09L25.91 4.09ZM7.01 12.99L16.67 12.99L11.24 17.94L3.55 17.94L7.01 12.99ZM5 19.04L11.47 19.04C11.49 19.04 11.5 19.04 11.52 19.04C11.53 19.04 11.54 19.03 11.55 19.03C11.56 19.03 11.57 19.03 11.58 19.03C11.59 19.03 11.6 19.02 11.6 19.02C11.61 19.02 11.62 19.02 11.63 19.01C11.64 19.01 11.65 19.01 11.66 19.01C11.66 19 11.67 19 11.68 19C11.69 18.99 11.7 18.99 11.71 18.99C11.71 18.98 11.72 18.98 11.73 18.97C11.74 18.97 11.75 18.97 11.75 18.96C11.76 18.96 11.77 18.95 11.78 18.95C11.79 18.94 11.79 18.93 11.8 18.93C11.81 18.92 11.82 18.92 11.82 18.91C11.84 18.9 11.85 18.89 11.86 18.88L21 10.18L30.13 18.88C30.14 18.89 30.16 18.9 30.17 18.91C30.18 18.92 30.19 18.92 30.19 18.93C30.2 18.93 30.21 18.94 30.22 18.95C30.22 18.95 30.23 18.96 30.24 18.96C30.25 18.97 30.26 18.97 30.26 18.97C30.27 18.98 30.28 18.98 30.29 18.99C30.3 18.99 30.3 18.99 30.31 19C30.32 19 30.33 19 30.34 19.01C30.35 19.01 30.36 19.01 30.36 19.01C30.37 19.02 30.38 19.02 30.39 19.02C30.4 19.02 30.41 19.03 30.42 19.03C30.43 19.03 30.44 19.03 30.45 19.03C30.45 19.03 30.46 19.04 30.47 19.04C30.49 19.04 30.51 19.04 30.53 19.04L37.05 19.04L37.05 34.97L25 34.97L25 26.91C25 25.97 24.34 24.95 23.38 24.95L18.62 24.95C17.65 24.95 16.99 25.97 16.99 26.91L16.99 34.97L4.88 34.97L5 19.04ZM24.01 27.91L17.98 27.91L17.98 26.91C17.98 26.57 18.27 26.04 18.62 26.04L23.38 26.04C23.73 26.04 24.01 26.57 24.01 26.91L24.01 27.91ZM17.98 29L20.44 29L20.44 34.97L17.98 34.97L17.98 29ZM21.56 29L24.01 29L24.01 34.97L21.56 34.97L21.56 29ZM21 23.12C23.28 23.12 25.13 21.31 25.13 19.08C25.13 16.84 23.28 15.03 21 15.03C18.72 15.03 16.87 16.84 16.87 19.08C16.87 21.31 18.72 23.12 21 23.12ZM21 16.12C22.66 16.12 24.01 17.45 24.01 19.08C24.01 20.7 22.66 22.03 21 22.03C19.33 22.03 17.98 20.7 17.98 19.08C17.98 17.45 19.33 16.12 21 16.12ZM21 19.62C21.31 19.62 21.56 19.38 21.56 19.08L21.56 17.32C21.56 17.02 21.31 16.78 21 16.78C20.69 16.78 20.44 17.02 20.44 17.32L20.44 18.53L19.21 18.53C18.9 18.53 18.65 18.77 18.65 19.08C18.65 19.38 18.9 19.62 19.21 19.62L21 19.62ZM15.48 28.18L12.5 28.18C12.19 28.18 11.94 28.42 11.94 28.73L11.94 32.23C11.94 32.53 12.19 32.77 12.5 32.77L15.48 32.77C15.79 32.77 16.04 32.53 16.04 32.23L16.04 28.73C16.04 28.42 15.79 28.18 15.48 28.18ZM14.92 29.27L14.92 29.93L13.06 29.93L13.06 29.27L14.92 29.27ZM13.06 31.68L13.06 31.02L14.92 31.02L14.92 31.68L13.06 31.68ZM9.49 28.24L6.52 28.24C6.21 28.24 5.96 28.49 5.96 28.79L5.96 32.29C5.96 32.59 6.21 32.84 6.52 32.84L9.49 32.84C9.8 32.84 10.05 32.59 10.05 32.29L10.05 28.79C10.05 28.49 9.8 28.24 9.49 28.24ZM8.94 29.34L8.94 29.99L7.07 29.99L7.07 29.34L8.94 29.34ZM7.07 31.74L7.07 31.09L8.94 31.09L8.94 31.74L7.07 31.74ZM15.36 20.86L12.75 20.86C12.34 20.86 12.01 21.19 12.01 21.59L12.01 25.49C12.01 25.8 12.26 26.04 12.56 26.04L15.54 26.04C15.85 26.04 16.1 25.8 16.1 25.49L16.1 21.59C16.1 21.19 15.77 20.86 15.36 20.86ZM14.98 21.96L14.98 23.2L13.12 23.2L13.12 21.96L14.98 21.96ZM13.12 24.95L13.12 24.29L14.98 24.29L14.98 24.95L13.12 24.95ZM9.31 20.86L6.7 20.86C6.29 20.86 5.96 21.19 5.96 21.59L5.96 25.49C5.96 25.8 6.21 26.04 6.52 26.04L9.49 26.04C9.8 26.04 10.05 25.8 10.05 25.49L10.05 21.59C10.05 21.19 9.72 20.86 9.31 20.86ZM8.94 21.96L8.94 23.2L7.07 23.2L7.07 21.96L8.94 21.96ZM7.07 24.95L7.07 24.29L8.94 24.29L8.94 24.95L7.07 24.95ZM32.56 32.77L35.54 32.77C35.85 32.77 36.1 32.53 36.1 32.23L36.1 28.73C36.1 28.42 35.85 28.18 35.54 28.18L32.56 28.18C32.25 28.18 32 28.42 32 28.73L32 32.23C32 32.53 32.25 32.77 32.56 32.77ZM33.12 31.68L33.12 31.02L34.98 31.02L34.98 31.68L33.12 31.68ZM34.98 29.27L34.98 29.93L33.12 29.93L33.12 29.27L34.98 29.27ZM26.52 32.84L29.49 32.84C29.8 32.84 30.05 32.59 30.05 32.29L30.05 28.79C30.05 28.49 29.8 28.24 29.49 28.24L26.52 28.24C26.21 28.24 25.96 28.49 25.96 28.79L25.96 32.29C25.96 32.59 26.21 32.84 26.52 32.84ZM27.07 31.74L27.07 31.09L28.93 31.09L28.93 31.74L27.07 31.74ZM28.93 29.34L28.93 29.99L27.07 29.99L27.07 29.34L28.93 29.34ZM32.56 26.04L35.54 26.04C35.85 26.04 36.1 25.8 36.1 25.49L36.1 21.59C36.1 21.19 35.77 20.86 35.35 20.86L32.75 20.86C32.34 20.86 32 21.19 32 21.59L32 25.49C32 25.8 32.25 26.04 32.56 26.04ZM33.12 24.95L33.12 24.29L34.98 24.29L34.98 24.95L33.12 24.95ZM34.98 21.96L34.98 23.2L33.12 23.2L33.12 21.96L34.98 21.96ZM26.52 26.1L29.49 26.1C29.8 26.1 30.05 25.86 30.05 25.56L30.05 21.65C30.05 21.25 29.72 20.92 29.31 20.92L26.7 20.92C26.29 20.92 25.96 21.25 25.96 21.65L25.96 25.56C25.96 25.86 26.21 26.1 26.52 26.1ZM27.07 25.01L27.07 24.35L28.93 24.35L28.93 25.01L27.07 25.01ZM28.93 22.02L28.93 23.26L27.07 23.26L27.07 22.02L28.93 22.02Z" />
</svg>
