<svg height="38" viewBox="0 0 42 38" width="42" xmlns="http://www.w3.org/2000/svg"><path d="m39.46 34.97h-1.48v-15.93h1.48c.2 0 .39-.11.49-.29.1-.17.09-.38-.02-.55l-4.17-6.05c-.1-.16-.28-.25-.47-.25h-11.08l-2.65-2.72v-2.15h5.39c.21 0 .4-.11.5-.29.09-.17.08-.39-.03-.56l-.99-1.45.99-.88c.11-.17.12-.38.03-.56-.1-.18-.29-.29-.5-.29h-5.39v-1.18c0-.31-.25-.55-.56-.55s-.56.24-.56.55v7.36l-2.65 2.72h-11.09c-.19 0-.36.09-.47.25l-4.17 6.05c-.11.17-.11.38-.01.55.09.18.28.29.48.29h1.48v15.93h-1.48c-.3 0-.55.25-.55.55s.25.48.55.48h36.93c.31 0 .56-.18.56-.48s-.25-.55-.56-.55zm-4.48-21.98 3.46 4.95h-7.68l-5.44-4.95zm-9.07-8.9-.61.34c-.13.18-.13.42 0 .61l.61.9h-4.35v-1.85zm-18.9 8.9h9.66l-5.43 4.95h-7.69zm-2.01 6.05h6.47.05c.01 0 .02-.01.03-.01h.03c.01 0 .02-.01.02-.01.01 0 .02 0 .03-.01h.03c0-.01.01-.01.02-.01.01-.01.02-.01.03-.01 0-.01.01-.01.02-.02.01 0 .02 0 .02-.01.01 0 .02-.01.03-.01.01-.01.01-.02.02-.02.01-.01.02-.01.02-.02.02-.01.03-.02.04-.03l9.14-8.7 9.13 8.7c.01.01.03.02.04.03s.02.01.02.02c.01 0 .02.01.03.02 0 0 .01.01.02.01.01.01.02.01.02.01.01.01.02.01.03.02.01 0 .01 0 .02.01.01 0 .02 0 .03.01h.02c.01.01.02.01.03.01s.02.01.03.01h.03s.01.01.02.01h.06 6.52v15.93h-12.05v-8.06c0-.94-.66-1.96-1.62-1.96h-4.76c-.97 0-1.63 1.02-1.63 1.96v8.06h-12.11zm19.01 8.87h-6.03v-1c0-.34.29-.87.64-.87h4.76c.35 0 .63.53.63.87zm-6.03 1.09h2.46v5.97h-2.46zm3.58 0h2.45v5.97h-2.45zm-.56-5.88c2.28 0 4.13-1.81 4.13-4.04 0-2.24-1.85-4.05-4.13-4.05s-4.13 1.81-4.13 4.05c0 2.23 1.85 4.04 4.13 4.04zm0-7c1.66 0 3.01 1.33 3.01 2.96 0 1.62-1.35 2.95-3.01 2.95-1.67 0-3.02-1.33-3.02-2.95 0-1.63 1.35-2.96 3.02-2.96zm0 3.5c.31 0 .56-.24.56-.54v-1.76c0-.3-.25-.54-.56-.54s-.56.24-.56.54v1.21h-1.23c-.31 0-.56.24-.56.55 0 .3.25.54.56.54zm-5.52 8.56h-2.98c-.31 0-.56.24-.56.55v3.5c0 .3.25.54.56.54h2.98c.31 0 .56-.24.56-.54v-3.5c0-.31-.25-.55-.56-.55zm-.56 1.09v.66h-1.86v-.66zm-1.86 2.41v-.66h1.86v.66zm-3.57-3.44h-2.97c-.31 0-.56.25-.56.55v3.5c0 .3.25.55.56.55h2.97c.31 0 .56-.25.56-.55v-3.5c0-.3-.25-.55-.56-.55zm-.55 1.1v.65h-1.87v-.65zm-1.87 2.4v-.65h1.87v.65zm8.29-10.88h-2.61c-.41 0-.74.33-.74.73v3.9c0 .31.25.55.55.55h2.98c.31 0 .56-.24.56-.55v-3.9c0-.4-.33-.73-.74-.73zm-.38 1.1v1.24h-1.86v-1.24zm-1.86 2.99v-.66h1.86v.66zm-3.81-4.09h-2.61c-.41 0-.74.33-.74.73v3.9c0 .31.25.55.56.55h2.97c.31 0 .56-.24.56-.55v-3.9c0-.4-.33-.73-.74-.73zm-.37 1.1v1.24h-1.87v-1.24zm-1.87 2.99v-.66h1.87v.66zm25.49 7.82h2.98c.31 0 .56-.24.56-.54v-3.5c0-.31-.25-.55-.56-.55h-2.98c-.31 0-.56.24-.56.55v3.5c0 .3.25.54.56.54zm.56-1.09v-.66h1.86v.66zm1.86-2.41v.66h-1.86v-.66zm-8.46 3.57h2.97c.31 0 .56-.25.56-.55v-3.5c0-.3-.25-.55-.56-.55h-2.97c-.31 0-.56.25-.56.55v3.5c0 .3.25.55.56.55zm.55-1.1v-.65h1.86v.65zm1.86-2.4v.65h-1.86v-.65zm3.63-3.3h2.98c.31 0 .56-.24.56-.55v-3.9c0-.4-.33-.73-.75-.73h-2.6c-.41 0-.75.33-.75.73v3.9c0 .31.25.55.56.55zm.56-1.09v-.66h1.86v.66zm1.86-2.99v1.24h-1.86v-1.24zm-8.46 4.14h2.97c.31 0 .56-.24.56-.54v-3.91c0-.4-.33-.73-.74-.73h-2.61c-.41 0-.74.33-.74.73v3.91c0 .3.25.54.56.54zm.55-1.09v-.66h1.86v.66zm1.86-2.99v1.24h-1.86v-1.24z" fill="#fff"/></svg>