<svg xmlns="http://www.w3.org/2000/svg" width="26" height="26" viewBox="0 0 26 26" fill="#fff"><path d="M7.469.063c-.07-.014-.12.002-.188.03a.366.366 0 0 0-.218.345v2.28C1.978 2.869-1.351 6.109.593 14c-.323-5.415 1.6-8.64 6.471-8.531v2.156c0 .148.081.287.218.344.045.018.077.031.125.031a.33.33 0 0 0 .25-.094l4.5-3.656a.345.345 0 0 0 0-.5L7.656.187C7.604.137 7.54.077 7.47.064zM6 10a2 2 0 0 0-2 2v12a2 2 0 0 0 2 2h18a2 2 0 0 0 2-2V12a2 2 0 0 0-2-2H6zm1 2h16v12H7V12zm17.469 5.188a.82.82 0 0 1 .812.812c0 .442-.37.813-.812.813-.442 0-.782-.371-.782-.813 0-.442.34-.813.782-.813z"/></svg>