<?xml version="1.0" encoding="utf-8"?>
<!-- Generator: Adobe Illustrator 19.2.1, SVG Export Plug-In . SVG Version: 6.00 Build 0)  -->
<svg version="1.1" id="Layer_1" xmlns="http://www.w3.org/2000/svg" xmlns:xlink="http://www.w3.org/1999/xlink" x="0px" y="0px"
	 width="104px" height="74px" viewBox="0 0 104 74" style="enable-background:new 0 0 104 74;" xml:space="preserve">
<g>
	
	<g>
		<defs>
			<path id="SVGID_1_" d="M17.8,3.1C17.8,3.1,35,2,52.2,2C69.6,2,87,3.1,87,3.1c7,0,12.8,5.7,12.8,12.7c0,0,1.1,9.9,1.1,19.9
				c0,10.2-1.1,20.5-1.1,20.5c0,7-5.7,12.7-12.8,12.7c0,0-17.4,1.1-34.7,1.1c-17.3,0-34.5-1.1-34.5-1.1c-7,0-12.8-5.7-12.8-12.7
				c0,0-1.1-10.2-1.1-20.3c0-10,1.1-20,1.1-20C5,8.8,10.7,3.1,17.8,3.1L17.8,3.1z"/>
		</defs>
		<linearGradient id="SVGID_2_" gradientUnits="userSpaceOnUse" x1="52.3666" y1="1.9987" x2="52.3666" y2="69.9993">
			<stop  offset="0" style="stop-color:#00CBE3"/>
			<stop  offset="1" style="stop-color:#06899D"/>
		</linearGradient>
		<use xlink:href="#SVGID_1_"  style="overflow:visible;fill-rule:evenodd;clip-rule:evenodd;fill:url(#SVGID_2_);"/>
		<clipPath id="SVGID_3_">
			<use xlink:href="#SVGID_1_"  style="overflow:visible;"/>
		</clipPath>
	</g>
	<g>
		<defs>
			<polygon id="SVGID_4_" points="37.9,14 37.9,58 75.9,36.1 37.9,14 			"/>
		</defs>
		<use xlink:href="#SVGID_4_"  style="overflow:visible;fill-rule:evenodd;clip-rule:evenodd;fill:#FFFFFF;"/>
		<clipPath id="SVGID_5_">
			<use xlink:href="#SVGID_4_"  style="overflow:visible;"/>
		</clipPath>
	</g>
</g>
</svg>
