<svg id="icon" xmlns="http://www.w3.org/2000/svg" width="76" height="79" viewBox="0 0 76 79">
  <metadata><?xpacket begin="﻿" id="W5M0MpCehiHzreSzNTczkc9d"?>
<x:xmpmeta xmlns:x="adobe:ns:meta/" x:xmptk="Adobe XMP Core 5.6-c138 79.159824, 2016/09/14-01:09:01        ">
   <rdf:RDF xmlns:rdf="http://www.w3.org/1999/02/22-rdf-syntax-ns#">
      <rdf:Description rdf:about=""/>
   </rdf:RDF>
</x:xmpmeta>
                                                                                                    
                                                                                                    
                                                                                                    
                                                                                                    
                                                                                                    
                                                                                                    
                                                                                                    
                                                                                                    
                                                                                                    
                                                                                                    
                                                                                                    
                                                                                                    
                                                                                                    
                                                                                                    
                                                                                                    
                                                                                                    
                                                                                                    
                                                                                                    
                                                                                                    
                                                                                                    
                           
<?xpacket end="w"?></metadata>
<defs>
    <style>
      .cls-1 {
        fill: #ff9d86;
      }

      .cls-2 {
        fill: #738dc3;
      }

      .cls-2, .cls-3 {
        fill-rule: evenodd;
      }

      .cls-3 {
        fill: #f7d5a8;
      }
    </style>
  </defs>
  <circle id="x" class="cls-1" cx="38" cy="38.22" r="38"/>
  <path id="x-2" data-name="x" class="cls-2" d="M542.482,2551.96h29.029V2576H542.482v-24.04Z" transform="translate(-518.906 -2497)"/>
  <path id="x-3" data-name="x" class="cls-3" d="M569.8,2522.76h0.854a2.568,2.568,0,0,1,2.562,2.58v17.17a2.574,2.574,0,0,1-2.562,2.58H569.8a2.574,2.574,0,0,1-2.561-2.58v-17.17A2.568,2.568,0,0,1,569.8,2522.76Zm-7.684-1.72h1.708a2.574,2.574,0,0,1,2.561,2.58v19.75a2.565,2.565,0,0,1-2.561,2.57h-1.708a2.565,2.565,0,0,1-2.561-2.57v-19.75A2.574,2.574,0,0,1,562.119,2521.04Zm-6.83-1.71h0.854a2.565,2.565,0,0,1,2.561,2.57v20.61a2.574,2.574,0,0,1-2.561,2.58h-0.854a2.574,2.574,0,0,1-2.562-2.58V2521.9A2.566,2.566,0,0,1,555.289,2519.33Zm-7.684-15.46h1.707a2.566,2.566,0,0,1,2.562,2.57v36.07a2.574,2.574,0,0,1-2.562,2.58h-1.707a2.574,2.574,0,0,1-2.562-2.58v-36.07A2.566,2.566,0,0,1,547.605,2503.87Zm22.2,48.09s3.416-5.94,3.416-12.03v-12.02l-23.053-3.43-5.123,13.74-3.415-6.01s-2.063-3.37-5.123-3.44-3.059,0-3.415.86,5.55,11.38,7.684,15.46a53.47,53.47,0,0,0,4.269,6.87H569.8Z" transform="translate(-518.906 -2497)"/>
</svg>
